<svg width="60" height="60" viewBox="0 0 60 60" fill="none" xmlns="http://www.w3.org/2000/svg">
<g id="File Upload / Light / Duotone">
<path id="Shape" opacity="0.25" d="M7.45166 9.9372C7.45166 5.82112 10.7884 2.48438 14.9045 2.48438H39.1445C41.1211 2.48438 43.0167 3.26958 44.4144 4.66726L49.9858 10.2386C51.3834 11.6363 52.1686 13.5319 52.1686 15.5085V49.6856C52.1686 53.8017 48.8319 57.1385 44.7158 57.1385H14.9045C10.7884 57.1385 7.45166 53.8017 7.45166 49.6856V9.9372Z" fill="#13b7f2"/>
<path id="Shape_2" d="M37.2629 4.69987C37.2629 3.47628 38.2548 2.48438 39.4784 2.48438C41.2412 2.48438 42.9317 3.18463 44.1782 4.43108L50.2219 10.4748C51.4684 11.7212 52.1686 13.4118 52.1686 15.1745C52.1686 16.3981 51.1767 17.39 49.9531 17.39H39.7472C38.3752 17.39 37.2629 16.2778 37.2629 14.9058V4.69987Z" fill="#13b7f2"/>
<path id="Shape_3" d="M28.8582 22.5479C28.5652 22.6691 28.2907 22.8488 28.0525 23.087L20.5997 30.5398C19.6295 31.51 19.6295 33.083 20.5997 34.0531C21.5699 35.0233 23.1428 35.0233 24.113 34.0531L27.3249 30.8412V42.2336C27.3249 43.6056 28.4371 44.7179 29.8092 44.7179C31.1812 44.7179 32.2935 43.6056 32.2935 42.2336V30.8412L35.5054 34.0531C36.4755 35.0233 38.0485 35.0233 39.0187 34.0531C39.9888 33.083 39.9888 31.51 39.0187 30.5398L31.5658 23.087C30.8338 22.355 29.7587 22.1753 28.8582 22.5479Z" fill="#13b7f2"/>
</g>
</svg>
